<?xml version="1.0" encoding="utf-8" standalone="no"?>
<!DOCTYPE svg PUBLIC "-//W3C//DTD SVG 1.1//EN"
  "http://www.w3.org/Graphics/SVG/1.1/DTD/svg11.dtd">
<svg xmlns:xlink="http://www.w3.org/1999/xlink" width="1152pt" height="576pt" viewBox="0 0 1152 576" xmlns="http://www.w3.org/2000/svg" version="1.1">
 <metadata>
  <rdf:RDF xmlns:dc="http://purl.org/dc/elements/1.1/" xmlns:cc="http://creativecommons.org/ns#" xmlns:rdf="http://www.w3.org/1999/02/22-rdf-syntax-ns#">
   <cc:Work>
    <dc:type rdf:resource="http://purl.org/dc/dcmitype/StillImage"/>
    <dc:date>2024-06-02T00:12:20.510581</dc:date>
    <dc:format>image/svg+xml</dc:format>
    <dc:creator>
     <cc:Agent>
      <dc:title>Matplotlib v3.7.5, https://matplotlib.org/</dc:title>
     </cc:Agent>
    </dc:creator>
   </cc:Work>
  </rdf:RDF>
 </metadata>
 <defs>
  <style type="text/css">*{stroke-linejoin: round; stroke-linecap: butt}</style>
 </defs>
 <g id="figure_1">
  <g id="patch_1">
   <path d="M 0 576 
L 1152 576 
L 1152 0 
L 0 0 
z
" style="fill: #ffffff"/>
  </g>
  <g id="axes_1">
   <g id="patch_2">
    <path d="M 144 512.64 
L 1036.8 512.64 
L 1036.8 69.12 
L 144 69.12 
z
" style="fill: #ffffff"/>
   </g>
   <g id="patch_3">
    <path d="M 144 512.64 
L 144 69.12 
L 816.131028 69.12 
L 816.131028 512.64 
z
" clip-path="url(#p70f0e3f2a3)" style="fill: #8de5a1; opacity: 0.5; stroke: #8de5a1; stroke-linejoin: miter"/>
   </g>
   <g id="patch_4">
    <path d="M 817.856555 512.64 
L 817.856555 69.12 
L 965.961763 69.12 
L 965.961763 512.64 
z
" clip-path="url(#p70f0e3f2a3)" style="fill: #ffb482; opacity: 0.5; stroke: #ffb482; stroke-linejoin: miter"/>
   </g>
   <g id="patch_5">
    <path d="M 966.526759 512.64 
L 966.526759 69.12 
L 1036.8 69.12 
L 1036.8 512.64 
z
" clip-path="url(#p70f0e3f2a3)" style="fill: #ff9f9b; opacity: 0.5; stroke: #ff9f9b; stroke-linejoin: miter"/>
   </g>
   <g id="matplotlib.axis_1">
    <g id="xtick_1">
     <g id="line2d_1">
      <defs>
       <path id="m681713d405" d="M 0 0 
L 0 3.5 
" style="stroke: #000000; stroke-width: 0.8"/>
      </defs>
      <g>
       <use xlink:href="#m681713d405" x="168.691836" y="512.64" style="stroke: #000000; stroke-width: 0.8"/>
      </g>
     </g>
     <g id="text_1">
      <!-- 01-24 10 -->
      <g transform="translate(146.211368 527.238438) scale(0.1 -0.1)">
       <defs>
        <path id="DejaVuSans-30" d="M 2034 4250 
Q 1547 4250 1301 3770 
Q 1056 3291 1056 2328 
Q 1056 1369 1301 889 
Q 1547 409 2034 409 
Q 2525 409 2770 889 
Q 3016 1369 3016 2328 
Q 3016 3291 2770 3770 
Q 2525 4250 2034 4250 
z
M 2034 4750 
Q 2819 4750 3233 4129 
Q 3647 3509 3647 2328 
Q 3647 1150 3233 529 
Q 2819 -91 2034 -91 
Q 1250 -91 836 529 
Q 422 1150 422 2328 
Q 422 3509 836 4129 
Q 1250 4750 2034 4750 
z
" transform="scale(0.015625)"/>
        <path id="DejaVuSans-31" d="M 794 531 
L 1825 531 
L 1825 4091 
L 703 3866 
L 703 4441 
L 1819 4666 
L 2450 4666 
L 2450 531 
L 3481 531 
L 3481 0 
L 794 0 
L 794 531 
z
" transform="scale(0.015625)"/>
        <path id="DejaVuSans-2d" d="M 313 2009 
L 1997 2009 
L 1997 1497 
L 313 1497 
L 313 2009 
z
" transform="scale(0.015625)"/>
        <path id="DejaVuSans-32" d="M 1228 531 
L 3431 531 
L 3431 0 
L 469 0 
L 469 531 
Q 828 903 1448 1529 
Q 2069 2156 2228 2338 
Q 2531 2678 2651 2914 
Q 2772 3150 2772 3378 
Q 2772 3750 2511 3984 
Q 2250 4219 1831 4219 
Q 1534 4219 1204 4116 
Q 875 4013 500 3803 
L 500 4441 
Q 881 4594 1212 4672 
Q 1544 4750 1819 4750 
Q 2544 4750 2975 4387 
Q 3406 4025 3406 3419 
Q 3406 3131 3298 2873 
Q 3191 2616 2906 2266 
Q 2828 2175 2409 1742 
Q 1991 1309 1228 531 
z
" transform="scale(0.015625)"/>
        <path id="DejaVuSans-34" d="M 2419 4116 
L 825 1625 
L 2419 1625 
L 2419 4116 
z
M 2253 4666 
L 3047 4666 
L 3047 1625 
L 3713 1625 
L 3713 1100 
L 3047 1100 
L 3047 0 
L 2419 0 
L 2419 1100 
L 313 1100 
L 313 1709 
L 2253 4666 
z
" transform="scale(0.015625)"/>
        <path id="DejaVuSans-20" transform="scale(0.015625)"/>
       </defs>
       <use xlink:href="#DejaVuSans-30"/>
       <use xlink:href="#DejaVuSans-31" x="63.623047"/>
       <use xlink:href="#DejaVuSans-2d" x="127.246094"/>
       <use xlink:href="#DejaVuSans-32" x="163.330078"/>
       <use xlink:href="#DejaVuSans-34" x="226.953125"/>
       <use xlink:href="#DejaVuSans-20" x="290.576172"/>
       <use xlink:href="#DejaVuSans-31" x="322.363281"/>
       <use xlink:href="#DejaVuSans-30" x="385.986328"/>
      </g>
     </g>
    </g>
    <g id="xtick_2">
     <g id="line2d_2">
      <g>
       <use xlink:href="#m681713d405" x="278.636934" y="512.64" style="stroke: #000000; stroke-width: 0.8"/>
      </g>
     </g>
     <g id="text_2">
      <!-- 01-24 12 -->
      <g transform="translate(256.156465 527.238438) scale(0.1 -0.1)">
       <use xlink:href="#DejaVuSans-30"/>
       <use xlink:href="#DejaVuSans-31" x="63.623047"/>
       <use xlink:href="#DejaVuSans-2d" x="127.246094"/>
       <use xlink:href="#DejaVuSans-32" x="163.330078"/>
       <use xlink:href="#DejaVuSans-34" x="226.953125"/>
       <use xlink:href="#DejaVuSans-20" x="290.576172"/>
       <use xlink:href="#DejaVuSans-31" x="322.363281"/>
       <use xlink:href="#DejaVuSans-32" x="385.986328"/>
      </g>
     </g>
    </g>
    <g id="xtick_3">
     <g id="line2d_3">
      <g>
       <use xlink:href="#m681713d405" x="388.582031" y="512.64" style="stroke: #000000; stroke-width: 0.8"/>
      </g>
     </g>
     <g id="text_3">
      <!-- 01-24 14 -->
      <g transform="translate(366.101562 527.238438) scale(0.1 -0.1)">
       <use xlink:href="#DejaVuSans-30"/>
       <use xlink:href="#DejaVuSans-31" x="63.623047"/>
       <use xlink:href="#DejaVuSans-2d" x="127.246094"/>
       <use xlink:href="#DejaVuSans-32" x="163.330078"/>
       <use xlink:href="#DejaVuSans-34" x="226.953125"/>
       <use xlink:href="#DejaVuSans-20" x="290.576172"/>
       <use xlink:href="#DejaVuSans-31" x="322.363281"/>
       <use xlink:href="#DejaVuSans-34" x="385.986328"/>
      </g>
     </g>
    </g>
    <g id="xtick_4">
     <g id="line2d_4">
      <g>
       <use xlink:href="#m681713d405" x="498.527128" y="512.64" style="stroke: #000000; stroke-width: 0.8"/>
      </g>
     </g>
     <g id="text_4">
      <!-- 01-24 16 -->
      <g transform="translate(476.046659 527.238438) scale(0.1 -0.1)">
       <defs>
        <path id="DejaVuSans-36" d="M 2113 2584 
Q 1688 2584 1439 2293 
Q 1191 2003 1191 1497 
Q 1191 994 1439 701 
Q 1688 409 2113 409 
Q 2538 409 2786 701 
Q 3034 994 3034 1497 
Q 3034 2003 2786 2293 
Q 2538 2584 2113 2584 
z
M 3366 4563 
L 3366 3988 
Q 3128 4100 2886 4159 
Q 2644 4219 2406 4219 
Q 1781 4219 1451 3797 
Q 1122 3375 1075 2522 
Q 1259 2794 1537 2939 
Q 1816 3084 2150 3084 
Q 2853 3084 3261 2657 
Q 3669 2231 3669 1497 
Q 3669 778 3244 343 
Q 2819 -91 2113 -91 
Q 1303 -91 875 529 
Q 447 1150 447 2328 
Q 447 3434 972 4092 
Q 1497 4750 2381 4750 
Q 2619 4750 2861 4703 
Q 3103 4656 3366 4563 
z
" transform="scale(0.015625)"/>
       </defs>
       <use xlink:href="#DejaVuSans-30"/>
       <use xlink:href="#DejaVuSans-31" x="63.623047"/>
       <use xlink:href="#DejaVuSans-2d" x="127.246094"/>
       <use xlink:href="#DejaVuSans-32" x="163.330078"/>
       <use xlink:href="#DejaVuSans-34" x="226.953125"/>
       <use xlink:href="#DejaVuSans-20" x="290.576172"/>
       <use xlink:href="#DejaVuSans-31" x="322.363281"/>
       <use xlink:href="#DejaVuSans-36" x="385.986328"/>
      </g>
     </g>
    </g>
    <g id="xtick_5">
     <g id="line2d_5">
      <g>
       <use xlink:href="#m681713d405" x="608.472225" y="512.64" style="stroke: #000000; stroke-width: 0.8"/>
      </g>
     </g>
     <g id="text_5">
      <!-- 01-24 18 -->
      <g transform="translate(585.991757 527.238438) scale(0.1 -0.1)">
       <defs>
        <path id="DejaVuSans-38" d="M 2034 2216 
Q 1584 2216 1326 1975 
Q 1069 1734 1069 1313 
Q 1069 891 1326 650 
Q 1584 409 2034 409 
Q 2484 409 2743 651 
Q 3003 894 3003 1313 
Q 3003 1734 2745 1975 
Q 2488 2216 2034 2216 
z
M 1403 2484 
Q 997 2584 770 2862 
Q 544 3141 544 3541 
Q 544 4100 942 4425 
Q 1341 4750 2034 4750 
Q 2731 4750 3128 4425 
Q 3525 4100 3525 3541 
Q 3525 3141 3298 2862 
Q 3072 2584 2669 2484 
Q 3125 2378 3379 2068 
Q 3634 1759 3634 1313 
Q 3634 634 3220 271 
Q 2806 -91 2034 -91 
Q 1263 -91 848 271 
Q 434 634 434 1313 
Q 434 1759 690 2068 
Q 947 2378 1403 2484 
z
M 1172 3481 
Q 1172 3119 1398 2916 
Q 1625 2713 2034 2713 
Q 2441 2713 2670 2916 
Q 2900 3119 2900 3481 
Q 2900 3844 2670 4047 
Q 2441 4250 2034 4250 
Q 1625 4250 1398 4047 
Q 1172 3844 1172 3481 
z
" transform="scale(0.015625)"/>
       </defs>
       <use xlink:href="#DejaVuSans-30"/>
       <use xlink:href="#DejaVuSans-31" x="63.623047"/>
       <use xlink:href="#DejaVuSans-2d" x="127.246094"/>
       <use xlink:href="#DejaVuSans-32" x="163.330078"/>
       <use xlink:href="#DejaVuSans-34" x="226.953125"/>
       <use xlink:href="#DejaVuSans-20" x="290.576172"/>
       <use xlink:href="#DejaVuSans-31" x="322.363281"/>
       <use xlink:href="#DejaVuSans-38" x="385.986328"/>
      </g>
     </g>
    </g>
    <g id="xtick_6">
     <g id="line2d_6">
      <g>
       <use xlink:href="#m681713d405" x="718.417323" y="512.64" style="stroke: #000000; stroke-width: 0.8"/>
      </g>
     </g>
     <g id="text_6">
      <!-- 01-24 20 -->
      <g transform="translate(695.936854 527.238438) scale(0.1 -0.1)">
       <use xlink:href="#DejaVuSans-30"/>
       <use xlink:href="#DejaVuSans-31" x="63.623047"/>
       <use xlink:href="#DejaVuSans-2d" x="127.246094"/>
       <use xlink:href="#DejaVuSans-32" x="163.330078"/>
       <use xlink:href="#DejaVuSans-34" x="226.953125"/>
       <use xlink:href="#DejaVuSans-20" x="290.576172"/>
       <use xlink:href="#DejaVuSans-32" x="322.363281"/>
       <use xlink:href="#DejaVuSans-30" x="385.986328"/>
      </g>
     </g>
    </g>
    <g id="xtick_7">
     <g id="line2d_7">
      <g>
       <use xlink:href="#m681713d405" x="828.36242" y="512.64" style="stroke: #000000; stroke-width: 0.8"/>
      </g>
     </g>
     <g id="text_7">
      <!-- 01-24 22 -->
      <g transform="translate(805.881951 527.238438) scale(0.1 -0.1)">
       <use xlink:href="#DejaVuSans-30"/>
       <use xlink:href="#DejaVuSans-31" x="63.623047"/>
       <use xlink:href="#DejaVuSans-2d" x="127.246094"/>
       <use xlink:href="#DejaVuSans-32" x="163.330078"/>
       <use xlink:href="#DejaVuSans-34" x="226.953125"/>
       <use xlink:href="#DejaVuSans-20" x="290.576172"/>
       <use xlink:href="#DejaVuSans-32" x="322.363281"/>
       <use xlink:href="#DejaVuSans-32" x="385.986328"/>
      </g>
     </g>
    </g>
    <g id="xtick_8">
     <g id="line2d_8">
      <g>
       <use xlink:href="#m681713d405" x="938.307517" y="512.64" style="stroke: #000000; stroke-width: 0.8"/>
      </g>
     </g>
     <g id="text_8">
      <!-- 01-25 00 -->
      <g transform="translate(915.827048 527.238438) scale(0.1 -0.1)">
       <defs>
        <path id="DejaVuSans-35" d="M 691 4666 
L 3169 4666 
L 3169 4134 
L 1269 4134 
L 1269 2991 
Q 1406 3038 1543 3061 
Q 1681 3084 1819 3084 
Q 2600 3084 3056 2656 
Q 3513 2228 3513 1497 
Q 3513 744 3044 326 
Q 2575 -91 1722 -91 
Q 1428 -91 1123 -41 
Q 819 9 494 109 
L 494 744 
Q 775 591 1075 516 
Q 1375 441 1709 441 
Q 2250 441 2565 725 
Q 2881 1009 2881 1497 
Q 2881 1984 2565 2268 
Q 2250 2553 1709 2553 
Q 1456 2553 1204 2497 
Q 953 2441 691 2322 
L 691 4666 
z
" transform="scale(0.015625)"/>
       </defs>
       <use xlink:href="#DejaVuSans-30"/>
       <use xlink:href="#DejaVuSans-31" x="63.623047"/>
       <use xlink:href="#DejaVuSans-2d" x="127.246094"/>
       <use xlink:href="#DejaVuSans-32" x="163.330078"/>
       <use xlink:href="#DejaVuSans-35" x="226.953125"/>
       <use xlink:href="#DejaVuSans-20" x="290.576172"/>
       <use xlink:href="#DejaVuSans-30" x="322.363281"/>
       <use xlink:href="#DejaVuSans-30" x="385.986328"/>
      </g>
     </g>
    </g>
    <g id="text_9">
     <!-- Tempo (s) -->
     <g transform="translate(565.920313 540.916563) scale(0.1 -0.1)">
      <defs>
       <path id="DejaVuSans-54" d="M -19 4666 
L 3928 4666 
L 3928 4134 
L 2272 4134 
L 2272 0 
L 1638 0 
L 1638 4134 
L -19 4134 
L -19 4666 
z
" transform="scale(0.015625)"/>
       <path id="DejaVuSans-65" d="M 3597 1894 
L 3597 1613 
L 953 1613 
Q 991 1019 1311 708 
Q 1631 397 2203 397 
Q 2534 397 2845 478 
Q 3156 559 3463 722 
L 3463 178 
Q 3153 47 2828 -22 
Q 2503 -91 2169 -91 
Q 1331 -91 842 396 
Q 353 884 353 1716 
Q 353 2575 817 3079 
Q 1281 3584 2069 3584 
Q 2775 3584 3186 3129 
Q 3597 2675 3597 1894 
z
M 3022 2063 
Q 3016 2534 2758 2815 
Q 2500 3097 2075 3097 
Q 1594 3097 1305 2825 
Q 1016 2553 972 2059 
L 3022 2063 
z
" transform="scale(0.015625)"/>
       <path id="DejaVuSans-6d" d="M 3328 2828 
Q 3544 3216 3844 3400 
Q 4144 3584 4550 3584 
Q 5097 3584 5394 3201 
Q 5691 2819 5691 2113 
L 5691 0 
L 5113 0 
L 5113 2094 
Q 5113 2597 4934 2840 
Q 4756 3084 4391 3084 
Q 3944 3084 3684 2787 
Q 3425 2491 3425 1978 
L 3425 0 
L 2847 0 
L 2847 2094 
Q 2847 2600 2669 2842 
Q 2491 3084 2119 3084 
Q 1678 3084 1418 2786 
Q 1159 2488 1159 1978 
L 1159 0 
L 581 0 
L 581 3500 
L 1159 3500 
L 1159 2956 
Q 1356 3278 1631 3431 
Q 1906 3584 2284 3584 
Q 2666 3584 2933 3390 
Q 3200 3197 3328 2828 
z
" transform="scale(0.015625)"/>
       <path id="DejaVuSans-70" d="M 1159 525 
L 1159 -1331 
L 581 -1331 
L 581 3500 
L 1159 3500 
L 1159 2969 
Q 1341 3281 1617 3432 
Q 1894 3584 2278 3584 
Q 2916 3584 3314 3078 
Q 3713 2572 3713 1747 
Q 3713 922 3314 415 
Q 2916 -91 2278 -91 
Q 1894 -91 1617 61 
Q 1341 213 1159 525 
z
M 3116 1747 
Q 3116 2381 2855 2742 
Q 2594 3103 2138 3103 
Q 1681 3103 1420 2742 
Q 1159 2381 1159 1747 
Q 1159 1113 1420 752 
Q 1681 391 2138 391 
Q 2594 391 2855 752 
Q 3116 1113 3116 1747 
z
" transform="scale(0.015625)"/>
       <path id="DejaVuSans-6f" d="M 1959 3097 
Q 1497 3097 1228 2736 
Q 959 2375 959 1747 
Q 959 1119 1226 758 
Q 1494 397 1959 397 
Q 2419 397 2687 759 
Q 2956 1122 2956 1747 
Q 2956 2369 2687 2733 
Q 2419 3097 1959 3097 
z
M 1959 3584 
Q 2709 3584 3137 3096 
Q 3566 2609 3566 1747 
Q 3566 888 3137 398 
Q 2709 -91 1959 -91 
Q 1206 -91 779 398 
Q 353 888 353 1747 
Q 353 2609 779 3096 
Q 1206 3584 1959 3584 
z
" transform="scale(0.015625)"/>
       <path id="DejaVuSans-28" d="M 1984 4856 
Q 1566 4138 1362 3434 
Q 1159 2731 1159 2009 
Q 1159 1288 1364 580 
Q 1569 -128 1984 -844 
L 1484 -844 
Q 1016 -109 783 600 
Q 550 1309 550 2009 
Q 550 2706 781 3412 
Q 1013 4119 1484 4856 
L 1984 4856 
z
" transform="scale(0.015625)"/>
       <path id="DejaVuSans-73" d="M 2834 3397 
L 2834 2853 
Q 2591 2978 2328 3040 
Q 2066 3103 1784 3103 
Q 1356 3103 1142 2972 
Q 928 2841 928 2578 
Q 928 2378 1081 2264 
Q 1234 2150 1697 2047 
L 1894 2003 
Q 2506 1872 2764 1633 
Q 3022 1394 3022 966 
Q 3022 478 2636 193 
Q 2250 -91 1575 -91 
Q 1294 -91 989 -36 
Q 684 19 347 128 
L 347 722 
Q 666 556 975 473 
Q 1284 391 1588 391 
Q 1994 391 2212 530 
Q 2431 669 2431 922 
Q 2431 1156 2273 1281 
Q 2116 1406 1581 1522 
L 1381 1569 
Q 847 1681 609 1914 
Q 372 2147 372 2553 
Q 372 3047 722 3315 
Q 1072 3584 1716 3584 
Q 2034 3584 2315 3537 
Q 2597 3491 2834 3397 
z
" transform="scale(0.015625)"/>
       <path id="DejaVuSans-29" d="M 513 4856 
L 1013 4856 
Q 1481 4119 1714 3412 
Q 1947 2706 1947 2009 
Q 1947 1309 1714 600 
Q 1481 -109 1013 -844 
L 513 -844 
Q 928 -128 1133 580 
Q 1338 1288 1338 2009 
Q 1338 2731 1133 3434 
Q 928 4138 513 4856 
z
" transform="scale(0.015625)"/>
      </defs>
      <use xlink:href="#DejaVuSans-54"/>
      <use xlink:href="#DejaVuSans-65" x="44.083984"/>
      <use xlink:href="#DejaVuSans-6d" x="105.607422"/>
      <use xlink:href="#DejaVuSans-70" x="203.019531"/>
      <use xlink:href="#DejaVuSans-6f" x="266.496094"/>
      <use xlink:href="#DejaVuSans-20" x="327.677734"/>
      <use xlink:href="#DejaVuSans-28" x="359.464844"/>
      <use xlink:href="#DejaVuSans-73" x="398.478516"/>
      <use xlink:href="#DejaVuSans-29" x="450.578125"/>
     </g>
    </g>
   </g>
   <g id="matplotlib.axis_2">
    <g id="ytick_1">
     <g id="line2d_9">
      <defs>
       <path id="m206cdf0080" d="M 0 0 
L -3.5 0 
" style="stroke: #000000; stroke-width: 0.8"/>
      </defs>
      <g>
       <use xlink:href="#m206cdf0080" x="144" y="507.870388" style="stroke: #000000; stroke-width: 0.8"/>
      </g>
     </g>
     <g id="text_10">
      <!-- 116.8 -->
      <g transform="translate(108.371875 511.669606) scale(0.1 -0.1)">
       <defs>
        <path id="DejaVuSans-2e" d="M 684 794 
L 1344 794 
L 1344 0 
L 684 0 
L 684 794 
z
" transform="scale(0.015625)"/>
       </defs>
       <use xlink:href="#DejaVuSans-31"/>
       <use xlink:href="#DejaVuSans-31" x="63.623047"/>
       <use xlink:href="#DejaVuSans-36" x="127.246094"/>
       <use xlink:href="#DejaVuSans-2e" x="190.869141"/>
       <use xlink:href="#DejaVuSans-38" x="222.65625"/>
      </g>
     </g>
    </g>
    <g id="ytick_2">
     <g id="line2d_10">
      <g>
       <use xlink:href="#m206cdf0080" x="144" y="414.026561" style="stroke: #000000; stroke-width: 0.8"/>
      </g>
     </g>
     <g id="text_11">
      <!-- 117.0 -->
      <g transform="translate(108.371875 417.82578) scale(0.1 -0.1)">
       <defs>
        <path id="DejaVuSans-37" d="M 525 4666 
L 3525 4666 
L 3525 4397 
L 1831 0 
L 1172 0 
L 2766 4134 
L 525 4134 
L 525 4666 
z
" transform="scale(0.015625)"/>
       </defs>
       <use xlink:href="#DejaVuSans-31"/>
       <use xlink:href="#DejaVuSans-31" x="63.623047"/>
       <use xlink:href="#DejaVuSans-37" x="127.246094"/>
       <use xlink:href="#DejaVuSans-2e" x="190.869141"/>
       <use xlink:href="#DejaVuSans-30" x="222.65625"/>
      </g>
     </g>
    </g>
    <g id="ytick_3">
     <g id="line2d_11">
      <g>
       <use xlink:href="#m206cdf0080" x="144" y="320.182735" style="stroke: #000000; stroke-width: 0.8"/>
      </g>
     </g>
     <g id="text_12">
      <!-- 117.2 -->
      <g transform="translate(108.371875 323.981954) scale(0.1 -0.1)">
       <use xlink:href="#DejaVuSans-31"/>
       <use xlink:href="#DejaVuSans-31" x="63.623047"/>
       <use xlink:href="#DejaVuSans-37" x="127.246094"/>
       <use xlink:href="#DejaVuSans-2e" x="190.869141"/>
       <use xlink:href="#DejaVuSans-32" x="222.65625"/>
      </g>
     </g>
    </g>
    <g id="ytick_4">
     <g id="line2d_12">
      <g>
       <use xlink:href="#m206cdf0080" x="144" y="226.338908" style="stroke: #000000; stroke-width: 0.8"/>
      </g>
     </g>
     <g id="text_13">
      <!-- 117.4 -->
      <g transform="translate(108.371875 230.138127) scale(0.1 -0.1)">
       <use xlink:href="#DejaVuSans-31"/>
       <use xlink:href="#DejaVuSans-31" x="63.623047"/>
       <use xlink:href="#DejaVuSans-37" x="127.246094"/>
       <use xlink:href="#DejaVuSans-2e" x="190.869141"/>
       <use xlink:href="#DejaVuSans-34" x="222.65625"/>
      </g>
     </g>
    </g>
    <g id="ytick_5">
     <g id="line2d_13">
      <g>
       <use xlink:href="#m206cdf0080" x="144" y="132.495082" style="stroke: #000000; stroke-width: 0.8"/>
      </g>
     </g>
     <g id="text_14">
      <!-- 117.6 -->
      <g transform="translate(108.371875 136.294301) scale(0.1 -0.1)">
       <use xlink:href="#DejaVuSans-31"/>
       <use xlink:href="#DejaVuSans-31" x="63.623047"/>
       <use xlink:href="#DejaVuSans-37" x="127.246094"/>
       <use xlink:href="#DejaVuSans-2e" x="190.869141"/>
       <use xlink:href="#DejaVuSans-36" x="222.65625"/>
      </g>
     </g>
    </g>
    <g id="text_15">
     <!-- T-TPT (°C) -->
     <g transform="translate(102.292187 315.43) rotate(-90) scale(0.1 -0.1)">
      <defs>
       <path id="DejaVuSans-50" d="M 1259 4147 
L 1259 2394 
L 2053 2394 
Q 2494 2394 2734 2622 
Q 2975 2850 2975 3272 
Q 2975 3691 2734 3919 
Q 2494 4147 2053 4147 
L 1259 4147 
z
M 628 4666 
L 2053 4666 
Q 2838 4666 3239 4311 
Q 3641 3956 3641 3272 
Q 3641 2581 3239 2228 
Q 2838 1875 2053 1875 
L 1259 1875 
L 1259 0 
L 628 0 
L 628 4666 
z
" transform="scale(0.015625)"/>
       <path id="DejaVuSans-b0" d="M 1600 4347 
Q 1350 4347 1178 4173 
Q 1006 4000 1006 3750 
Q 1006 3503 1178 3333 
Q 1350 3163 1600 3163 
Q 1850 3163 2022 3333 
Q 2194 3503 2194 3750 
Q 2194 3997 2020 4172 
Q 1847 4347 1600 4347 
z
M 1600 4750 
Q 1800 4750 1984 4673 
Q 2169 4597 2303 4453 
Q 2447 4313 2519 4134 
Q 2591 3956 2591 3750 
Q 2591 3338 2302 3052 
Q 2013 2766 1594 2766 
Q 1172 2766 890 3047 
Q 609 3328 609 3750 
Q 609 4169 896 4459 
Q 1184 4750 1600 4750 
z
" transform="scale(0.015625)"/>
       <path id="DejaVuSans-43" d="M 4122 4306 
L 4122 3641 
Q 3803 3938 3442 4084 
Q 3081 4231 2675 4231 
Q 1875 4231 1450 3742 
Q 1025 3253 1025 2328 
Q 1025 1406 1450 917 
Q 1875 428 2675 428 
Q 3081 428 3442 575 
Q 3803 722 4122 1019 
L 4122 359 
Q 3791 134 3420 21 
Q 3050 -91 2638 -91 
Q 1578 -91 968 557 
Q 359 1206 359 2328 
Q 359 3453 968 4101 
Q 1578 4750 2638 4750 
Q 3056 4750 3426 4639 
Q 3797 4528 4122 4306 
z
" transform="scale(0.015625)"/>
      </defs>
      <use xlink:href="#DejaVuSans-54"/>
      <use xlink:href="#DejaVuSans-2d" x="51.958984"/>
      <use xlink:href="#DejaVuSans-54" x="78.917969"/>
      <use xlink:href="#DejaVuSans-50" x="140.001953"/>
      <use xlink:href="#DejaVuSans-54" x="200.304688"/>
      <use xlink:href="#DejaVuSans-20" x="261.388672"/>
      <use xlink:href="#DejaVuSans-28" x="293.175781"/>
      <use xlink:href="#DejaVuSans-b0" x="332.189453"/>
      <use xlink:href="#DejaVuSans-43" x="382.189453"/>
      <use xlink:href="#DejaVuSans-29" x="452.013672"/>
     </g>
    </g>
   </g>
   <g id="line2d_14">
    <path d="M 144 474.180454 
L 158.338673 474.08661 
L 158.735697 473.195094 
L 158.796778 473.10125 
L 159.178531 472.256655 
L 159.224342 472.162812 
L 159.590826 471.365139 
L 159.651906 471.271295 
L 160.04893 470.379779 
L 160.110011 470.285935 
L 160.507035 469.394419 
L 160.568115 469.300575 
L 160.965139 468.409059 
L 161.02622 468.315215 
L 161.407974 467.47062 
L 161.453784 467.376776 
L 161.820268 466.579104 
L 161.881348 466.48526 
L 162.278372 465.593744 
L 162.339453 465.4999 
L 162.736477 464.608384 
L 162.797558 464.51454 
L 163.194582 463.623023 
L 163.255662 463.52918 
L 163.637416 462.684585 
L 163.683226 462.590741 
L 164.04971 461.793069 
L 164.110791 461.699225 
L 164.507815 460.807709 
L 164.568895 460.713865 
L 164.965919 459.822348 
L 165.027 459.728505 
L 165.424024 458.836988 
L 165.485104 458.743144 
L 165.866858 457.89855 
L 165.912669 457.804706 
L 166.279152 457.007034 
L 166.340233 456.91319 
L 166.737257 456.021673 
L 166.798338 455.92783 
L 166.828878 455.833986 
L 166.844148 455.974752 
L 167.424414 461.746147 
L 168.676566 474.180454 
L 168.737647 472.960484 
L 169.592775 455.833986 
L 169.623316 456.021673 
L 172.494104 474.180454 
L 172.555185 473.570469 
L 173.150721 467.611386 
L 174.326523 455.833986 
L 174.387603 457.053956 
L 175.242732 474.180454 
L 175.258002 473.852 
L 176.158941 455.833986 
L 176.311642 456.443971 
L 176.632316 457.757784 
L 177.02934 459.306207 
L 177.350013 460.620021 
L 177.731767 462.121522 
L 178.05244 463.435336 
L 178.449464 464.983759 
L 178.770137 466.297572 
L 179.151891 467.799074 
L 179.472564 469.112887 
L 179.854318 470.614388 
L 180.174991 471.928202 
L 180.572015 473.476625 
L 180.785797 474.180454 
L 189.932618 474.08661 
L 190.955719 471.271295 
L 191.001529 471.177451 
L 192.039899 468.315215 
L 192.08571 468.221371 
L 193.12408 465.359134 
L 193.169891 465.26529 
L 194.208261 462.403054 
L 194.254072 462.30921 
L 195.292442 459.446973 
L 195.338252 459.353129 
L 196.376623 456.490893 
L 196.422433 456.397049 
L 196.620945 455.833986 
L 197.537154 474.180454 
L 197.567695 473.852 
L 198.865658 460.901552 
L 199.384843 455.833986 
L 208.577474 455.92783 
L 208.959228 456.772424 
L 209.005039 456.866268 
L 209.371522 457.66394 
L 209.432603 457.757784 
L 209.814357 458.602379 
L 209.860167 458.696223 
L 210.226651 459.493895 
L 210.287732 459.587739 
L 210.684756 460.479255 
L 210.745836 460.573099 
L 211.12759 461.417693 
L 211.1734 461.511537 
L 211.539884 462.30921 
L 211.600965 462.403054 
L 211.982718 463.247648 
L 212.028529 463.341492 
L 212.395013 464.139164 
L 212.456093 464.233008 
L 212.853117 465.124525 
L 212.914198 465.218368 
L 213.295952 466.062963 
L 213.341762 466.156807 
L 213.708246 466.954479 
L 213.769326 467.048323 
L 214.16635 467.939839 
L 214.227431 468.033683 
L 214.609185 468.878278 
L 214.654995 468.972121 
L 215.021479 469.769794 
L 215.082559 469.863638 
L 215.464313 470.708232 
L 215.510124 470.802076 
L 215.876607 471.599749 
L 215.937688 471.693592 
L 216.334712 472.585109 
L 216.395792 472.678953 
L 216.777546 473.523547 
L 216.823357 473.617391 
L 217.082949 474.180454 
L 217.09822 474.133532 
L 217.479973 473.288938 
L 217.525784 473.195094 
L 217.907538 472.350499 
L 217.968618 472.256655 
L 218.380912 471.318217 
L 218.441993 471.224373 
L 218.854287 470.285935 
L 218.915368 470.192091 
L 219.327662 469.253653 
L 219.388742 469.159809 
L 219.801036 468.221371 
L 219.846847 468.127527 
L 220.228601 467.282933 
L 220.289681 467.189089 
L 220.701975 466.250651 
L 220.763056 466.156807 
L 221.17535 465.218368 
L 221.236431 465.124525 
L 221.648725 464.186086 
L 221.709806 464.092243 
L 222.1221 463.153804 
L 222.18318 463.05996 
L 222.595474 462.121522 
L 222.656555 462.027678 
L 223.068849 461.08924 
L 223.12993 460.995396 
L 223.542224 460.056958 
L 223.603304 459.963114 
L 224.015599 459.024676 
L 224.061409 458.930832 
L 224.443163 458.086238 
L 224.504243 457.992394 
L 224.916538 457.053956 
L 224.977618 456.960112 
L 225.389912 456.021673 
L 225.450993 455.92783 
L 225.481533 455.833986 
L 225.496803 455.974752 
L 226.107609 462.121522 
L 227.313951 474.180454 
L 227.375032 472.960484 
L 228.230161 455.833986 
L 228.245431 456.162439 
L 229.14637 474.180454 
L 229.253261 473.10125 
L 230.703925 458.743144 
L 230.994058 455.833986 
L 231.039869 455.92783 
L 231.452163 456.866268 
L 231.513243 456.960112 
L 231.925537 457.89855 
L 231.986618 457.992394 
L 232.398912 458.930832 
L 232.459993 459.024676 
L 232.872287 459.963114 
L 232.918097 460.056958 
L 233.299851 460.901552 
L 233.360932 460.995396 
L 233.773226 461.933835 
L 233.834307 462.027678 
L 234.246601 462.966117 
L 234.292411 463.05996 
L 234.674165 463.904555 
L 234.735246 463.998399 
L 235.14754 464.936837 
L 235.20862 465.030681 
L 235.620914 465.969119 
L 235.666725 466.062963 
L 236.048479 466.907557 
L 236.094289 467.001401 
L 236.476043 467.845996 
L 236.537124 467.939839 
L 236.949418 468.878278 
L 237.010498 468.972121 
L 237.422792 469.91056 
L 237.468603 470.004404 
L 237.850357 470.848998 
L 237.911437 470.942842 
L 238.323731 471.88128 
L 238.369542 471.975124 
L 238.751296 472.819718 
L 238.812376 472.913562 
L 239.22467 473.852 
L 239.285751 473.945844 
L 239.377372 474.180454 
L 239.392642 473.992766 
L 240.705875 460.901552 
L 241.20979 455.833986 
L 242.125999 474.180454 
L 242.15654 474.08661 
L 244.095849 467.799074 
L 244.324901 467.048323 
L 246.310021 460.620021 
L 246.539073 459.86927 
L 247.959197 455.833986 
L 256.938047 455.833986 
L 257.090749 474.180454 
L 257.18237 472.350499 
L 258.006958 455.833986 
L 258.022228 456.162439 
L 258.923167 474.180454 
L 258.999518 472.632031 
L 259.839376 455.833986 
L 259.961537 456.67858 
L 261.305311 465.593744 
L 261.702335 468.268293 
L 262.588003 474.180454 
L 262.649084 473.570469 
L 264.069208 459.493895 
L 264.435692 455.833986 
L 264.450962 456.162439 
L 265.351901 474.180454 
L 265.474062 473.054328 
L 267.337021 455.833986 
L 267.367561 456.443971 
L 268.23796 474.180454 
L 268.2685 473.570469 
L 269.154169 455.833986 
L 269.184709 456.162439 
L 270.482672 469.112887 
L 270.986587 474.180454 
L 271.001857 474.133532 
L 272.23874 470.66131 
L 272.28455 470.567467 
L 273.536703 467.048323 
L 273.582513 466.954479 
L 274.849936 463.388414 
L 274.895746 463.29457 
L 276.147899 459.775427 
L 276.193709 459.681583 
L 277.445862 456.162439 
L 277.491672 456.068595 
L 277.568023 455.833986 
L 278.468962 474.180454 
L 278.499502 473.570469 
L 279.385171 455.833986 
L 279.400441 456.162439 
L 280.30138 474.180454 
L 280.408271 473.10125 
L 281.690964 460.291568 
L 282.133799 455.833986 
L 283.050008 474.180454 
L 283.080548 473.852 
L 284.378511 460.901552 
L 284.882426 455.833986 
L 285.798635 474.180454 
L 285.829175 474.039688 
L 286.27201 472.350499 
L 286.577413 471.13053 
L 287.035517 469.394419 
L 287.340921 468.174449 
L 287.799025 466.438338 
L 288.089158 465.312212 
L 288.516722 463.669945 
L 288.822125 462.449976 
L 289.26496 460.760787 
L 289.555093 459.634661 
L 289.982657 457.992394 
L 290.28806 456.772424 
L 290.532382 455.833986 
L 290.562923 456.162439 
L 291.860886 469.112887 
L 292.364801 474.180454 
L 292.945066 471.271295 
L 293.128308 470.379779 
L 293.708574 467.47062 
L 293.891816 466.579104 
L 294.472082 463.669945 
L 294.655324 462.778429 
L 295.250859 459.775427 
L 295.434101 458.88391 
L 296.014367 455.974752 
L 296.044907 455.833986 
L 296.060178 456.162439 
L 296.945846 474.180454 
L 297.037467 472.350499 
L 297.877326 455.833986 
L 297.999487 456.303205 
L 298.28962 457.429331 
L 298.717184 459.071598 
L 299.022587 460.291568 
L 299.480692 462.027678 
L 299.786095 463.247648 
L 300.244199 464.983759 
L 300.549602 466.203729 
L 301.007707 467.939839 
L 301.31311 469.159809 
L 301.771215 470.89592 
L 302.076618 472.11589 
L 302.534722 473.852 
L 302.611073 474.180454 
L 302.641613 473.852 
L 303.802145 462.168444 
L 304.428221 455.833986 
L 305.848345 469.91056 
L 306.30645 474.180454 
L 342.924275 474.227376 
L 343.947375 479.858005 
L 344.100077 480.655678 
L 345.092637 486.09862 
L 345.245338 486.896292 
L 346.253168 492.433078 
L 346.268439 492.48 
L 347.39843 443.024304 
L 348.100857 400.841504 
L 348.161938 402.061473 
L 349.017066 419.187972 
L 349.032336 418.859518 
L 349.933275 400.841504 
L 350.024896 402.436849 
L 350.986916 418.90644 
L 351.231238 421.487145 
L 352.529201 434.437593 
L 353.094197 442.69585 
L 353.750813 455.833986 
L 353.796624 455.552454 
L 354.193648 452.877905 
L 355.506881 444.150429 
L 355.903905 441.47588 
L 356.499441 437.53444 
L 356.529981 438.144425 
L 357.843214 464.373774 
L 358.331859 474.180454 
L 358.362399 473.570469 
L 359.248068 455.833986 
L 359.278608 455.974752 
L 359.736713 457.710862 
L 360.042116 458.930832 
L 360.500221 460.666943 
L 360.805624 461.886913 
L 361.248458 463.576101 
L 361.538591 464.702227 
L 361.966155 466.344494 
L 362.271558 467.564464 
L 362.729663 469.300575 
L 363.035066 470.520545 
L 363.493171 472.256655 
L 363.798574 473.476625 
L 363.981815 474.180454 
L 363.997086 473.852 
L 364.898025 455.833986 
L 364.974375 457.382409 
L 365.814234 474.180454 
L 365.890584 472.632031 
L 367.188547 446.684213 
L 368.791913 410.038199 
L 369.47907 382.541957 
L 369.555421 383.855771 
L 370.517441 400.325363 
L 371.876484 423.364022 
L 373.052286 435.188344 
L 373.51039 442.085865 
L 374.304438 456.91319 
L 375.755103 471.271295 
L 376.045236 474.180454 
L 376.060506 473.852 
L 377.190497 454.942469 
L 377.648602 453.206359 
L 377.954005 451.986389 
L 378.396839 450.2972 
L 378.686972 449.171074 
L 379.114536 447.528807 
L 379.419939 446.308837 
L 379.862774 444.619649 
L 380.152907 443.493523 
L 380.580471 441.851256 
L 380.885874 440.631286 
L 381.343979 438.895175 
L 381.649382 437.675205 
L 381.695192 437.53444 
L 381.710462 437.675205 
L 383.008425 450.625653 
L 383.542881 455.92783 
L 383.726122 456.819346 
L 384.321658 459.822348 
L 384.5049 460.713865 
L 385.100436 463.716867 
L 385.283678 464.608384 
L 385.879214 467.611386 
L 386.062456 468.502902 
L 386.657992 471.505905 
L 386.841234 472.397421 
L 387.192447 474.180454 
L 388.154467 455.833986 
L 424.787562 455.92783 
L 425.5358 457.89855 
L 425.58161 457.992394 
L 426.329848 459.963114 
L 426.375658 460.056958 
L 427.139166 462.0746 
L 427.184976 462.168444 
L 427.948484 464.186086 
L 427.994294 464.27993 
L 428.773072 466.344494 
L 428.818882 466.438338 
L 429.58239 468.45598 
L 429.628201 468.549824 
L 430.376438 470.520545 
L 430.422248 470.614388 
L 431.185756 472.632031 
L 431.231567 472.725875 
L 431.781292 474.180454 
L 432.697501 455.833986 
L 432.712771 456.115517 
L 433.674791 472.585109 
L 433.766412 474.180454 
L 433.827492 473.570469 
L 434.423028 467.611386 
L 435.59883 455.833986 
L 435.720991 456.443971 
L 436.301257 459.353129 
L 436.484499 460.244646 
L 437.064765 463.153804 
L 437.248007 464.045321 
L 437.828272 466.954479 
L 438.011514 467.845996 
L 438.59178 470.755154 
L 438.775022 471.646671 
L 439.278937 474.180454 
L 439.905013 467.845996 
L 441.065545 456.162439 
L 441.096085 455.833986 
L 441.126625 456.443971 
L 442.027564 474.180454 
L 442.149725 473.570469 
L 442.348237 472.632031 
L 442.867423 470.098247 
L 443.065935 469.159809 
L 443.56985 466.71987 
L 443.768362 465.781431 
L 444.272277 463.341492 
L 444.470789 462.403054 
L 444.989974 459.86927 
L 445.203756 458.88391 
L 445.722941 456.350127 
L 445.829832 455.833986 
L 445.845102 456.162439 
L 446.746041 474.180454 
L 446.852932 473.10125 
L 448.135625 460.291568 
L 448.57846 455.833986 
L 449.494669 474.180454 
L 449.509939 473.852 
L 450.410878 455.833986 
L 450.487229 457.382409 
L 451.327087 474.180454 
L 451.403438 472.632031 
L 452.243296 455.833986 
L 452.380728 456.397049 
L 452.838832 458.13316 
L 453.128965 459.259285 
L 453.541259 460.854631 
L 453.831392 461.980756 
L 454.243686 463.576101 
L 454.533819 464.702227 
L 454.961383 466.344494 
L 455.266786 467.564464 
L 455.724891 469.300575 
L 456.030294 470.520545 
L 456.488399 472.256655 
L 456.793802 473.476625 
L 456.977043 474.180454 
L 457.022854 473.945844 
L 457.61839 470.942842 
L 457.801632 470.051325 
L 458.397168 467.048323 
L 458.580409 466.156807 
L 459.175945 463.153804 
L 459.359187 462.262288 
L 459.954723 459.259285 
L 460.137965 458.367769 
L 460.64188 455.833986 
L 461.924573 464.373774 
L 462.321597 467.048323 
L 463.390507 474.180454 
L 463.512669 473.711235 
L 463.818072 472.491265 
L 464.276176 470.755154 
L 464.581579 469.535184 
L 465.039684 467.799074 
L 465.345087 466.579104 
L 465.803192 464.842993 
L 466.093324 463.716867 
L 466.505619 462.121522 
L 466.795751 460.995396 
L 467.208046 459.400051 
L 467.498178 458.273925 
L 467.925743 456.631658 
L 468.124255 455.833986 
L 468.139525 455.880908 
L 468.460198 457.194721 
L 468.857222 458.743144 
L 469.177895 460.056958 
L 469.574919 461.605381 
L 469.895592 462.919195 
L 470.292616 464.467618 
L 470.61329 465.781431 
L 471.010314 467.329855 
L 471.330987 468.643668 
L 471.728011 470.192091 
L 472.048684 471.505905 
L 472.445708 473.054328 
L 472.720571 474.180454 
L 475.6219 455.833986 
L 476.858782 431.012294 
L 477.439048 419.187972 
L 477.454318 419.797956 
L 478.370527 455.833986 
L 478.446878 455.646298 
L 478.843902 454.754782 
L 478.904982 454.660938 
L 479.317276 453.7225 
L 479.378357 453.628656 
L 479.790651 452.690218 
L 479.851732 452.596374 
L 480.264026 451.657936 
L 480.325106 451.564092 
L 480.737401 450.625653 
L 480.798481 450.53181 
L 481.210775 449.593371 
L 481.271856 449.499528 
L 481.68415 448.561089 
L 481.72996 448.467245 
L 482.111714 447.622651 
L 482.172795 447.528807 
L 482.585089 446.590369 
L 482.64617 446.496525 
L 483.058464 445.558087 
L 483.119544 445.464243 
L 483.531838 444.525805 
L 483.592919 444.431961 
L 484.005213 443.493523 
L 484.066294 443.399679 
L 484.478588 442.461241 
L 484.539669 442.367397 
L 484.951963 441.428958 
L 485.013043 441.335115 
L 485.425337 440.396676 
L 485.486418 440.302833 
L 485.898712 439.364394 
L 485.944523 439.27055 
L 486.326276 438.425956 
L 486.387357 438.332112 
L 486.753841 437.53444 
L 487.853292 455.833986 
L 496.847411 455.787064 
L 497.351326 453.347124 
L 497.549838 452.408686 
L 498.038483 450.06259 
L 498.236995 449.124152 
L 498.72564 446.778057 
L 498.924152 445.839618 
L 499.412797 443.493523 
L 499.611309 442.555084 
L 500.099954 440.208989 
L 500.298466 439.27055 
L 500.664949 437.53444 
L 501.581159 455.833986 
L 501.71859 455.177079 
L 502.329396 452.080233 
L 502.512638 451.188716 
L 503.108174 448.185714 
L 503.291416 447.294198 
L 503.886952 444.291195 
L 504.070193 443.399679 
L 504.665729 440.396676 
L 504.848971 439.50516 
L 505.245995 437.53444 
L 506.162204 455.833986 
L 506.269095 454.754782 
L 507.567058 441.804334 
L 507.994623 437.53444 
L 508.956642 454.004031 
L 509.155154 455.833986 
L 518.225625 455.833986 
L 519.065483 441.241271 
L 519.279265 437.53444 
L 519.325076 438.425956 
L 520.195474 455.833986 
L 520.210745 455.552454 
L 521.111684 437.53444 
L 521.126954 437.815971 
L 522.073703 455.974752 
L 522.318026 456.819346 
L 523.692339 461.370772 
L 523.936662 462.215366 
L 525.326246 466.813713 
L 525.570568 467.658308 
L 526.929612 472.162812 
L 527.173934 473.007406 
L 527.525148 474.180454 
L 527.540418 473.852 
L 528.624598 455.833986 
L 537.618718 455.92783 
L 540.672749 474.180454 
L 541.588958 455.833986 
L 541.619498 456.068595 
L 542.963272 464.983759 
L 543.360296 467.658308 
L 544.337585 474.180454 
L 544.368126 473.570469 
L 545.253794 455.833986 
L 545.284335 456.068595 
L 546.536487 464.420696 
L 546.933511 467.095245 
L 547.987152 474.180454 
L 548.032962 473.242016 
L 548.903361 455.833986 
L 549.056062 456.256283 
L 550.338755 459.86927 
L 550.384566 459.963114 
L 551.682529 463.623023 
L 551.728339 463.716867 
L 552.995762 467.282933 
L 553.041572 467.376776 
L 554.339535 471.036686 
L 554.385346 471.13053 
L 555.469526 474.180454 
L 556.385736 455.833986 
L 556.416276 456.162439 
L 557.714239 469.112887 
L 558.218154 474.180454 
L 559.134363 455.833986 
L 559.149633 456.115517 
L 560.111653 472.585109 
L 560.203274 474.180454 
L 560.249084 473.242016 
L 561.119483 455.833986 
L 561.195834 457.382409 
L 562.035692 474.180454 
L 562.112043 472.632031 
L 562.951901 455.833986 
L 563.028252 457.382409 
L 564.036082 474.180454 
L 573.060742 474.08661 
L 573.259254 473.148172 
L 573.763169 470.708232 
L 573.961681 469.769794 
L 574.465596 467.329855 
L 574.679378 466.344494 
L 575.198563 463.810711 
L 575.412345 462.825351 
L 575.931531 460.291568 
L 576.145313 459.306207 
L 576.664498 456.772424 
L 576.86301 455.833986 
L 576.969901 456.115517 
L 577.519626 457.476253 
L 577.565437 457.570097 
L 578.115162 458.930832 
L 578.160973 459.024676 
L 578.725968 460.432333 
L 578.771779 460.526177 
L 579.336775 461.933835 
L 579.382585 462.027678 
L 579.947581 463.435336 
L 579.993391 463.52918 
L 580.543117 464.889915 
L 580.588927 464.983759 
L 581.153923 466.391416 
L 581.199733 466.48526 
L 581.764729 467.892917 
L 581.810539 467.986761 
L 582.375535 469.394419 
L 582.421345 469.488263 
L 582.971071 470.848998 
L 583.016881 470.942842 
L 583.581877 472.350499 
L 583.627687 472.444343 
L 584.192683 473.852 
L 584.238494 473.945844 
L 584.330114 474.180454 
L 585.246324 437.53444 
L 585.307404 438.754409 
L 586.391585 456.772424 
L 586.773339 458.273925 
L 587.094012 459.587739 
L 587.491036 461.136162 
L 587.811709 462.449976 
L 588.193463 463.951477 
L 588.514136 465.26529 
L 588.91116 466.813713 
L 589.231833 468.127527 
L 589.613587 469.629028 
L 589.93426 470.942842 
L 590.316014 472.444343 
L 590.636687 473.758157 
L 590.743578 474.180454 
L 590.774119 473.852 
L 592.072082 460.901552 
L 592.575997 455.833986 
L 592.591267 455.880908 
L 592.89667 457.100877 
L 593.370045 458.88391 
L 593.675448 460.10388 
L 594.133552 461.839991 
L 594.423685 462.966117 
L 594.851249 464.608384 
L 595.141382 465.734509 
L 595.568947 467.376776 
L 595.859079 468.502902 
L 596.286644 470.145169 
L 596.576777 471.271295 
L 597.004341 472.913562 
L 597.309744 474.133532 
L 597.340284 474.461985 
L 598.241223 492.48 
L 598.256493 491.870015 
L 599.157432 455.833986 
L 599.233783 456.631658 
L 600.409585 468.45598 
L 601.310524 480.890287 
L 601.89079 492.48 
L 601.92133 491.870015 
L 603.204023 470.192091 
L 604.486716 457.382409 
L 604.639417 455.833986 
L 604.669957 456.443971 
L 605.555626 474.180454 
L 605.586167 473.898922 
L 607.540746 455.833986 
L 607.601827 456.256283 
L 608.91506 464.983759 
L 609.312084 467.658308 
L 610.289373 474.180454 
L 610.319914 473.570469 
L 611.205583 455.833986 
L 611.220853 456.162439 
L 612.121792 474.180454 
L 612.243953 473.335859 
L 613.572456 464.51454 
L 613.96948 461.839991 
L 614.870419 455.833986 
L 614.99258 456.115517 
L 615.374334 456.960112 
L 615.435415 457.053956 
L 615.847709 457.992394 
L 615.90879 458.086238 
L 616.321084 459.024676 
L 616.382164 459.11852 
L 616.794458 460.056958 
L 616.840269 460.150802 
L 617.222023 460.995396 
L 617.283103 461.08924 
L 617.695397 462.027678 
L 617.756478 462.121522 
L 618.168772 463.05996 
L 618.229853 463.153804 
L 618.642147 464.092243 
L 618.703227 464.186086 
L 619.115522 465.124525 
L 619.176602 465.218368 
L 619.588896 466.156807 
L 619.649977 466.250651 
L 620.062271 467.189089 
L 620.123352 467.282933 
L 620.535646 468.221371 
L 620.596726 468.315215 
L 621.00902 469.253653 
L 621.054831 469.347497 
L 621.436585 470.192091 
L 621.497665 470.285935 
L 621.909959 471.224373 
L 621.97104 471.318217 
L 622.383334 472.256655 
L 622.444415 472.350499 
L 622.856709 473.288938 
L 622.91779 473.382781 
L 623.269003 474.180454 
L 623.864539 468.221371 
L 625.101421 455.833986 
L 625.223583 456.67858 
L 626.567356 465.593744 
L 626.96438 468.268293 
L 627.850049 474.180454 
L 627.880589 473.570469 
L 628.781528 455.833986 
L 628.857879 457.382409 
L 629.697737 474.180454 
L 629.789358 472.585109 
L 630.751378 456.115517 
L 630.766648 455.833986 
L 630.812458 456.772424 
L 631.667587 474.180454 
L 631.713397 473.945844 
L 632.308933 470.942842 
L 632.492175 470.051325 
L 633.087711 467.048323 
L 633.270953 466.156807 
L 633.866489 463.153804 
L 634.049731 462.262288 
L 634.645267 459.259285 
L 634.828508 458.367769 
L 635.332423 455.833986 
L 636.233362 474.180454 
L 636.279173 473.852 
L 637.592406 465.124525 
L 637.98943 462.449976 
L 638.98199 455.833986 
L 639.058341 456.537815 
L 640.96711 474.180454 
L 641.04346 473.992766 
L 641.440484 473.10125 
L 641.486295 473.007406 
L 641.883319 472.11589 
L 641.944399 472.022046 
L 642.371964 471.036686 
L 642.417774 470.942842 
L 642.814798 470.051325 
L 642.860609 469.957482 
L 643.257633 469.065965 
L 643.318713 468.972121 
L 643.746277 467.986761 
L 643.792088 467.892917 
L 644.189112 467.001401 
L 644.250192 466.907557 
L 644.677757 465.922197 
L 644.723567 465.828353 
L 645.120591 464.936837 
L 645.166402 464.842993 
L 645.563426 463.951477 
L 645.624506 463.857633 
L 646.05207 462.872273 
L 646.097881 462.778429 
L 646.494905 461.886913 
L 646.555985 461.793069 
L 646.98355 460.807709 
L 647.02936 460.713865 
L 647.426384 459.822348 
L 647.487465 459.728505 
L 647.915029 458.743144 
L 647.960839 458.649301 
L 648.357863 457.757784 
L 648.403674 457.66394 
L 648.800698 456.772424 
L 648.861778 456.67858 
L 649.228262 455.833986 
L 650.190282 474.180454 
L 659.337103 474.08661 
L 659.841018 472.86664 
L 659.886828 472.772796 
L 660.390743 471.552827 
L 660.436554 471.458983 
L 660.955739 470.192091 
L 661.00155 470.098247 
L 661.520735 468.831356 
L 661.566545 468.737512 
L 662.07046 467.517542 
L 662.116271 467.423698 
L 662.635456 466.156807 
L 662.681266 466.062963 
L 663.185181 464.842993 
L 663.230992 464.749149 
L 663.750177 463.482258 
L 663.795987 463.388414 
L 664.299903 462.168444 
L 664.345713 462.0746 
L 664.864898 460.807709 
L 664.910709 460.713865 
L 665.414624 459.493895 
L 665.460434 459.400051 
L 665.979619 458.13316 
L 666.02543 458.039316 
L 666.544615 456.772424 
L 666.590425 456.67858 
L 666.941639 455.833986 
L 667.857848 474.180454 
L 667.888388 474.039688 
L 668.392303 471.599749 
L 668.590815 470.66131 
L 669.09473 468.221371 
L 669.293242 467.282933 
L 669.797157 464.842993 
L 669.995669 463.904555 
L 670.484314 461.558459 
L 670.682826 460.620021 
L 671.186741 458.180081 
L 671.385253 457.241643 
L 671.950249 453.112515 
L 672.561055 446.965744 
L 673.507804 437.53444 
L 673.553615 438.425956 
L 674.485094 456.162439 
L 674.668336 457.053956 
L 675.263872 460.056958 
L 675.447114 460.948474 
L 676.04265 463.951477 
L 676.225892 464.842993 
L 676.821427 467.845996 
L 677.004669 468.737512 
L 677.600205 471.740514 
L 677.783447 472.632031 
L 678.08885 474.180454 
L 678.11939 474.039688 
L 678.562225 472.350499 
L 678.867628 471.13053 
L 679.325732 469.394419 
L 679.631136 468.174449 
L 680.08924 466.438338 
L 680.379373 465.312212 
L 680.806937 463.669945 
L 681.11234 462.449976 
L 681.555175 460.760787 
L 681.845308 459.634661 
L 682.272872 457.992394 
L 682.578275 456.772424 
L 682.822597 455.833986 
L 682.898948 456.115517 
L 684.303802 460.760787 
L 684.548125 461.605381 
L 685.922438 466.156807 
L 686.166761 467.001401 
L 687.556345 471.599749 
L 687.800667 472.444343 
L 688.319852 474.180454 
L 688.335122 473.852 
L 689.236061 455.833986 
L 689.358223 456.960112 
L 691.221181 474.180454 
L 691.282262 473.852 
L 691.465504 472.960484 
L 692.045769 470.051325 
L 692.229011 469.159809 
L 692.809277 466.250651 
L 692.992519 465.359134 
L 693.572785 462.449976 
L 693.756026 461.558459 
L 694.336292 458.649301 
L 694.519534 457.757784 
L 694.901288 455.833986 
L 694.916558 455.92783 
L 695.0998 456.819346 
L 695.695336 459.822348 
L 695.878578 460.713865 
L 696.474114 463.716867 
L 696.657355 464.608384 
L 697.252891 467.611386 
L 697.436133 468.502902 
L 698.031669 471.505905 
L 698.214911 472.397421 
L 698.566124 474.180454 
L 698.581395 474.08661 
L 698.978419 471.412061 
L 700.291652 462.684585 
L 700.688676 460.010036 
L 701.314752 455.833986 
L 701.345292 456.350127 
L 702.368392 474.180454 
L 702.398933 473.852 
L 703.696896 460.901552 
L 704.200811 455.833986 
L 705.11702 474.180454 
L 705.13229 473.852 
L 706.033229 455.833986 
L 706.14012 456.91319 
L 707.422813 469.722872 
L 707.865647 474.180454 
L 707.880917 474.133532 
L 709.14834 470.567467 
L 709.194151 470.473623 
L 710.492113 466.813713 
L 710.537924 466.71987 
L 711.805347 463.153804 
L 711.851157 463.05996 
L 713.14912 459.400051 
L 713.19493 459.306207 
L 714.431813 455.833986 
L 715.348022 474.180454 
L 715.378562 473.852 
L 716.676525 460.901552 
L 717.18044 455.833986 
L 718.096649 474.180454 
L 718.11192 473.852 
L 719.012859 455.833986 
L 719.089209 457.382409 
L 719.929068 474.180454 
L 720.035959 473.195094 
L 721.914187 455.833986 
L 721.944728 456.443971 
L 722.830397 474.180454 
L 722.860937 474.08661 
L 722.922018 473.992766 
L 723.242691 473.335859 
L 723.303771 473.242016 
L 723.639715 472.538187 
L 723.700795 472.444343 
L 724.036739 471.740514 
L 724.097819 471.646671 
L 724.418492 470.989764 
L 724.479573 470.89592 
L 724.815516 470.192091 
L 724.876597 470.098247 
L 725.21254 469.394419 
L 725.273621 469.300575 
L 725.609564 468.596746 
L 725.670645 468.502902 
L 725.991318 467.845996 
L 726.052399 467.752152 
L 726.388342 467.048323 
L 726.449423 466.954479 
L 726.785366 466.250651 
L 726.846447 466.156807 
L 727.16712 465.4999 
L 727.228201 465.406056 
L 727.564144 464.702227 
L 727.625224 464.608384 
L 727.961168 463.904555 
L 728.022248 463.810711 
L 728.342922 463.153804 
L 728.404002 463.05996 
L 728.739946 462.356132 
L 728.801026 462.262288 
L 729.13697 461.558459 
L 729.19805 461.464615 
L 729.533994 460.760787 
L 729.595074 460.666943 
L 729.915747 460.010036 
L 729.976828 459.916192 
L 730.312771 459.212364 
L 730.373852 459.11852 
L 730.709795 458.414691 
L 730.770876 458.320847 
L 731.091549 457.66394 
L 731.15263 457.570097 
L 731.488573 456.866268 
L 731.549654 456.772424 
L 731.885597 456.068595 
L 731.946678 455.974752 
L 732.023028 455.552454 
L 732.923967 437.53444 
L 732.954508 437.815971 
L 734.909087 455.833986 
L 734.939627 455.224001 
L 736.16124 430.68384 
L 736.726235 419.187972 
L 736.772046 419.469503 
L 737.16907 422.144052 
L 738.604464 431.622279 
L 739.001488 434.296828 
L 739.597024 438.613644 
L 740.772826 450.437966 
L 741.322551 455.880908 
L 741.627954 457.100877 
L 742.086059 458.836988 
L 742.391462 460.056958 
L 742.849566 461.793069 
L 743.154969 463.013039 
L 743.613074 464.749149 
L 743.918477 465.969119 
L 744.376582 467.70523 
L 744.681985 468.9252 
L 745.140089 470.66131 
L 745.445492 471.88128 
L 745.903597 473.617391 
L 746.041028 474.180454 
L 746.056298 474.08661 
L 746.453322 471.412061 
L 747.766555 462.684585 
L 748.163579 460.010036 
L 748.789656 455.833986 
L 748.866006 456.209361 
L 749.461542 459.212364 
L 749.644784 460.10388 
L 750.24032 463.106882 
L 750.423562 463.998399 
L 751.019098 467.001401 
L 751.20234 467.892917 
L 751.797876 470.89592 
L 751.981118 471.787436 
L 752.836246 477.699597 
L 754.439612 492.48 
L 754.470152 491.870015 
L 755.600144 472.960484 
L 756.19568 469.957482 
L 756.378921 469.065965 
L 756.974457 466.062963 
L 757.157699 465.171447 
L 757.753235 462.168444 
L 757.936477 461.276928 
L 758.532013 458.273925 
L 758.715255 457.382409 
L 759.020658 455.833986 
L 759.982677 474.180454 
L 769.129499 474.08661 
L 769.328011 473.148172 
L 769.847196 470.614388 
L 770.045708 469.67595 
L 770.549623 467.236011 
L 770.748135 466.297572 
L 771.25205 463.857633 
L 771.450562 462.919195 
L 771.969747 460.385411 
L 772.168259 459.446973 
L 772.672174 457.007034 
L 772.870686 456.068595 
L 772.916496 455.833986 
L 772.947037 456.162439 
L 774.245 469.112887 
L 774.748915 474.180454 
L 775.344451 468.221371 
L 776.581333 455.833986 
L 776.642414 456.91319 
L 777.604433 473.382781 
L 777.650244 474.180454 
L 777.726594 473.898922 
L 779.131449 469.253653 
L 779.375771 468.409059 
L 780.734815 463.904555 
L 780.979137 463.05996 
L 782.368721 458.461613 
L 782.613043 457.617019 
L 783.147499 455.833986 
L 783.193309 456.162439 
L 784.521812 464.983759 
L 784.918836 467.658308 
L 785.896126 474.180454 
L 785.926666 473.570469 
L 786.812335 455.833986 
L 786.827605 456.115517 
L 787.789625 472.585109 
L 787.881246 474.180454 
L 787.927056 473.288938 
L 788.812725 455.833986 
L 788.827995 455.974752 
L 789.438801 462.121522 
L 790.645143 474.180454 
L 790.736764 473.242016 
L 792.034727 460.291568 
L 792.477562 455.833986 
L 792.492832 455.92783 
L 792.889856 458.602379 
L 794.203089 467.329855 
L 794.600113 470.004404 
L 795.226189 474.180454 
L 795.256729 473.570469 
L 796.142398 455.833986 
L 796.172939 456.021673 
L 799.043727 474.180454 
L 799.074268 473.570469 
L 800.005747 455.833986 
L 809.106758 455.833986 
L 810.175668 474.180454 
L 810.190938 474.08661 
L 810.771204 471.177451 
L 810.954446 470.285935 
L 811.549982 467.282933 
L 811.733224 466.391416 
L 812.32876 463.388414 
L 812.512002 462.496897 
L 813.107538 459.493895 
L 813.290779 458.602379 
L 813.840505 455.833986 
L 823.017866 455.833986 
L 823.292729 435.047578 
L 824.468531 415.387297 
L 825.079337 409.240526 
L 825.949736 400.231519 
L 826.835405 382.541957 
L 826.911755 384.043459 
L 827.751614 400.841504 
L 827.782154 400.700738 
L 827.980666 399.7623 
L 828.484581 397.32236 
L 828.683093 396.383922 
L 829.187008 393.943982 
L 829.40079 392.958622 
L 829.919975 390.424839 
L 830.133758 389.439479 
L 830.652943 386.905695 
L 830.866725 385.920335 
L 831.38591 383.386552 
L 831.569152 382.541957 
L 832.485361 364.195489 
L 832.500631 364.523943 
L 833.40157 382.541957 
L 833.477921 380.993534 
L 834.317779 364.195489 
L 834.43994 364.993162 
L 834.836964 367.667711 
L 836.150198 376.395187 
L 836.547222 379.069736 
L 837.768834 385.920335 
L 837.967346 386.858773 
L 838.486531 389.392557 
L 838.685043 390.330995 
L 839.188958 392.770934 
L 839.38747 393.709373 
L 839.906655 396.243156 
L 840.120437 397.228516 
L 840.639622 399.7623 
L 840.838134 400.700738 
L 840.868675 400.841504 
L 840.883945 400.559972 
L 841.784884 382.541957 
L 841.800154 382.823489 
L 842.701093 400.841504 
L 842.716363 400.559972 
L 843.617302 382.541957 
L 843.647842 382.823489 
L 844.915265 395.492405 
L 845.44972 400.841504 
L 846.365929 382.541957 
L 846.472821 383.621161 
L 847.786054 396.712375 
L 848.198348 400.841504 
L 849.129827 381.744285 
L 850.946975 290.903461 
L 851.069136 291.466524 
L 851.573051 293.906463 
L 851.771563 294.844902 
L 852.275478 297.284841 
L 852.489261 298.270201 
L 853.008446 300.803985 
L 853.222228 301.789345 
L 853.741413 304.323128 
L 853.955195 305.308488 
L 854.47438 307.842272 
L 854.688163 308.827632 
L 854.764513 309.203007 
L 854.779783 308.921476 
L 855.680722 290.903461 
L 855.695993 291.184992 
L 856.596932 309.203007 
L 856.612202 308.921476 
L 857.558951 290.715773 
L 857.879624 289.40196 
L 858.276648 287.853537 
L 858.597322 286.539723 
L 858.979075 285.038222 
L 859.299749 283.724408 
L 859.681502 282.222907 
L 860.002176 280.909093 
L 860.3992 279.36067 
L 860.719873 278.046857 
L 861.101627 276.545356 
L 861.4223 275.231542 
L 861.804054 273.730041 
L 862.185807 270.727038 
L 863.010396 254.210525 
L 863.040936 254.351291 
L 863.48377 256.040479 
L 863.789173 257.260449 
L 864.247278 258.99656 
L 864.552681 260.21653 
L 865.010786 261.952641 
L 865.316189 263.17261 
L 865.774293 264.908721 
L 866.079696 266.128691 
L 866.537801 267.864802 
L 866.843204 269.084771 
L 867.301308 270.820882 
L 867.606711 272.040852 
L 867.744143 272.556993 
L 867.774683 272.275461 
L 868.385489 266.128691 
L 869.576561 254.210525 
L 869.637642 255.430495 
L 870.50804 272.556993 
L 870.645472 272.181618 
L 871.958705 268.474786 
L 872.004515 268.380943 
L 873.317748 264.674111 
L 873.363559 264.580268 
L 874.676792 260.873437 
L 874.722602 260.779593 
L 876.035836 257.072762 
L 876.081646 256.978918 
L 877.089476 253.60054 
L 877.975145 235.910979 
L 878.097306 236.708651 
L 879.379999 245.248439 
L 879.777023 247.922988 
L 880.723772 254.210525 
L 880.754313 253.60054 
L 881.655252 234.97254 
L 882.556191 180.918496 
L 882.647812 182.46692 
L 884.694012 218.174496 
L 885.060496 219.629075 
L 885.381169 220.942888 
L 885.762923 222.44439 
L 886.083596 223.758203 
L 886.48062 225.306626 
L 886.801293 226.62044 
L 887.183047 228.121941 
L 887.50372 229.435755 
L 887.885474 230.937256 
L 888.206147 232.251069 
L 888.587901 233.752571 
L 888.908574 235.066384 
L 889.122356 235.910979 
L 889.152897 235.582525 
L 890.450859 222.632077 
L 890.970045 217.564511 
L 900.116866 217.564511 
L 901.078886 201.094919 
L 901.185777 199.264965 
L 901.262127 199.64034 
L 901.445369 200.531856 
L 902.040905 203.534859 
L 902.224147 204.426375 
L 902.819683 207.429377 
L 903.002925 208.320894 
L 903.598461 211.323896 
L 903.781702 212.215413 
L 904.377238 215.218415 
L 904.56048 216.109931 
L 904.850613 217.564511 
L 905.980604 198.701902 
L 906.026415 198.608058 
L 906.591411 197.2004 
L 906.637221 197.106556 
L 907.202217 195.698899 
L 907.248027 195.605055 
L 907.813023 194.197398 
L 907.858833 194.103554 
L 908.408559 192.742819 
L 908.454369 192.648975 
L 909.019365 191.241317 
L 909.065175 191.147474 
L 909.630171 189.739816 
L 909.675981 189.645972 
L 910.225707 188.285237 
L 910.271517 188.191393 
L 910.836513 186.783736 
L 910.882323 186.689892 
L 911.447319 185.282234 
L 911.493129 185.188391 
L 912.058125 183.780733 
L 912.103936 183.686889 
L 912.668931 182.279232 
L 912.714742 182.185388 
L 913.233927 180.918496 
L 914.150136 199.264965 
L 914.302837 198.795745 
L 914.348648 198.701902 
L 915.646611 195.041992 
L 915.692421 194.948148 
L 916.959844 191.382083 
L 917.005654 191.288239 
L 918.303617 187.62833 
L 918.349428 187.534486 
L 919.632121 183.921499 
L 919.677931 183.827655 
L 920.716302 180.918496 
L 921.632511 199.264965 
L 921.739402 197.951151 
L 926.213556 144.272482 
L 928.290297 164.401983 
L 929.191236 181.434637 
L 930.412848 189.59905 
L 930.809872 192.273599 
L 931.848243 199.264965 
L 931.863513 198.608058 
L 934.59687 89.28 
L 934.688491 89.889985 
L 935.986454 98.523617 
L 936.383478 101.198166 
L 937.345497 107.579546 
L 938.261707 144.272482 
L 938.292247 143.662497 
L 939.208456 125.926014 
L 939.269537 127.145984 
L 940.368988 148.448533 
L 942.109785 180.918496 
L 942.170866 179.698527 
L 943.025994 162.572028 
L 943.041264 162.900482 
L 943.942203 180.918496 
L 943.988014 179.04162 
L 944.843142 144.272482 
L 944.934763 145.163999 
L 945.530299 151.123082 
L 946.675561 162.572028 
L 946.767181 161.680512 
L 948.034604 149.011595 
L 948.507979 144.272482 
L 949.805942 170.2203 
L 950.340397 180.918496 
L 950.370937 180.308512 
L 951.317687 162.196653 
L 954.157935 144.272482 
L 954.188476 144.882467 
L 955.486439 170.830285 
L 955.990354 180.918496 
L 956.036164 180.449277 
L 957.318857 167.639595 
L 957.914393 161.680512 
L 959.181815 149.011595 
L 959.65519 144.272482 
L 960.571399 162.572028 
L 960.67829 161.539746 
L 961.289096 155.392976 
L 962.403818 144.272482 
L 962.510709 144.929389 
L 965.305146 162.572028 
L 965.335687 162.008965 
L 965.961763 149.668502 
L 966.526759 150.043878 
L 967.152835 162.572028 
L 967.183375 161.962044 
L 968.481338 136.014226 
L 968.985253 125.926014 
L 969.031064 126.160624 
L 969.611329 129.069782 
L 969.794571 129.961299 
L 970.390107 132.964301 
L 970.573349 133.855818 
L 971.168885 136.85882 
L 971.352127 137.750336 
L 971.947663 140.753339 
L 972.130905 141.644855 
L 972.65009 144.272482 
L 975.551419 107.579546 
L 975.581959 108.799516 
L 976.467628 144.272482 
L 976.498168 143.944029 
L 977.6587 132.260472 
L 978.284776 125.926014 
L 979.7049 140.002588 
L 980.132464 144.272482 
L 980.147735 144.084795 
L 981.323536 132.260472 
L 981.949613 125.926014 
L 983.934732 144.272482 
L 983.965273 143.662497 
L 984.850942 125.926014 
L 984.866212 126.254468 
L 985.767151 144.272482 
L 985.812961 142.442528 
L 986.68336 107.579546 
L 986.72917 109.456423 
L 987.599569 144.272482 
L 987.66065 143.052513 
L 988.515778 125.926014 
L 988.546318 126.254468 
L 989.844281 139.204916 
L 990.348196 144.272482 
L 991.264406 125.926014 
L 991.294946 126.06678 
L 991.798861 128.506719 
L 991.997373 129.445158 
L 992.501288 131.885097 
L 992.6998 132.823535 
L 993.203715 135.263475 
L 993.417497 136.248835 
L 993.936682 138.782618 
L 994.150464 139.767979 
L 994.66965 142.301762 
L 994.883432 143.287122 
L 995.081944 144.272482 
L 995.097214 144.084795 
L 996.410447 130.993581 
L 997.250305 119.310024 
L 997.845841 107.579546 
L 997.891652 109.456423 
L 998.76205 144.272482 
L 998.838401 143.47481 
L 1000.136364 130.524362 
L 1000.594469 125.926014 
L 1001.510678 144.272482 
L 1001.525948 144.084795 
L 1002.152024 136.154991 
L 1004.412007 107.579546 
L 1004.534168 108.236453 
L 1004.71741 109.127969 
L 1005.312946 112.130972 
L 1005.496188 113.022488 
L 1006.091724 116.025491 
L 1006.274965 116.917007 
L 1006.870501 119.920009 
L 1007.053743 120.811526 
L 1007.649279 123.814528 
L 1007.832521 124.706044 
L 1008.428057 127.709047 
L 1008.611299 128.600563 
L 1009.206835 131.603566 
L 1009.390076 132.495082 
L 1009.985612 135.498084 
L 1010.168854 136.389601 
L 1010.76439 139.392603 
L 1010.947632 140.28412 
L 1011.543168 143.287122 
L 1011.72641 144.178638 
L 1011.74168 144.272482 
L 1011.78749 143.990951 
L 1012.138704 141.738699 
L 1014.627739 125.926014 
L 1014.73463 126.442155 
L 1015.345436 129.539002 
L 1015.528678 130.430518 
L 1016.124214 133.43352 
L 1016.307455 134.325037 
L 1016.902991 137.328039 
L 1017.086233 138.219555 
L 1017.681769 141.222558 
L 1017.865011 142.114074 
L 1018.292575 144.272482 
L 1018.903381 138.125712 
L 1020.124994 125.926014 
L 1021.041203 107.579546 
L 1021.178634 108.283375 
L 1021.392416 109.268735 
L 1021.911601 111.802518 
L 1022.125384 112.787879 
L 1022.629299 115.227818 
L 1022.827811 116.166256 
L 1023.331726 118.606196 
L 1023.530238 119.544634 
L 1024.034153 121.984573 
L 1024.232665 122.923012 
L 1024.73658 125.362951 
L 1024.935092 126.30139 
L 1025.530628 129.304392 
L 1025.713869 130.195908 
L 1026.309405 133.198911 
L 1026.492647 134.090427 
L 1027.088183 137.09343 
L 1027.271425 137.984946 
L 1027.866961 140.987948 
L 1028.050203 141.879465 
L 1028.523577 144.272482 
L 1029.439787 107.579546 
L 1029.500867 108.799516 
L 1030.355996 125.926014 
L 1030.371266 125.644483 
L 1031.272205 107.579546 
L 1031.287475 107.908 
L 1032.234224 126.113702 
L 1032.677059 127.802891 
L 1032.982462 129.02286 
L 1033.440566 130.758971 
L 1033.74597 131.978941 
L 1034.204074 133.715052 
L 1034.509477 134.935022 
L 1034.967582 136.671132 
L 1035.272985 137.891102 
L 1035.731089 139.627213 
L 1036.036492 140.847183 
L 1036.494597 142.583293 
L 1036.8 143.803263 
L 1036.8 143.803263 
" clip-path="url(#p70f0e3f2a3)" style="fill: none; stroke: #4169e1; stroke-width: 1.5; stroke-linecap: square"/>
   </g>
   <g id="patch_6">
    <path d="M 144 512.64 
L 144 69.12 
" style="fill: none; stroke: #000000; stroke-width: 0.8; stroke-linejoin: miter; stroke-linecap: square"/>
   </g>
   <g id="patch_7">
    <path d="M 1036.8 512.64 
L 1036.8 69.12 
" style="fill: none; stroke: #000000; stroke-width: 0.8; stroke-linejoin: miter; stroke-linecap: square"/>
   </g>
   <g id="patch_8">
    <path d="M 144 512.64 
L 1036.8 512.64 
" style="fill: none; stroke: #000000; stroke-width: 0.8; stroke-linejoin: miter; stroke-linecap: square"/>
   </g>
   <g id="patch_9">
    <path d="M 144 69.12 
L 1036.8 69.12 
" style="fill: none; stroke: #000000; stroke-width: 0.8; stroke-linejoin: miter; stroke-linecap: square"/>
   </g>
   <g id="legend_1">
    <g id="patch_10">
     <path d="M 151 135.8325 
L 234.760938 135.8325 
Q 236.760938 135.8325 236.760938 133.8325 
L 236.760938 76.12 
Q 236.760938 74.12 234.760938 74.12 
L 151 74.12 
Q 149 74.12 149 76.12 
L 149 133.8325 
Q 149 135.8325 151 135.8325 
z
" style="fill: #ffffff; opacity: 0.8; stroke: #cccccc; stroke-linejoin: miter"/>
    </g>
    <g id="text_16">
     <!-- Períodos -->
     <g transform="translate(171.628125 85.718437) scale(0.1 -0.1)">
      <defs>
       <path id="DejaVuSans-72" d="M 2631 2963 
Q 2534 3019 2420 3045 
Q 2306 3072 2169 3072 
Q 1681 3072 1420 2755 
Q 1159 2438 1159 1844 
L 1159 0 
L 581 0 
L 581 3500 
L 1159 3500 
L 1159 2956 
Q 1341 3275 1631 3429 
Q 1922 3584 2338 3584 
Q 2397 3584 2469 3576 
Q 2541 3569 2628 3553 
L 2631 2963 
z
" transform="scale(0.015625)"/>
       <path id="DejaVuSans-ed" d="M 1322 5119 
L 1944 5119 
L 926 3944 
L 447 3944 
L 1322 5119 
z
M 603 3500 
L 1178 3500 
L 1178 0 
L 603 0 
L 603 3500 
z
M 891 3584 
L 891 3584 
z
" transform="scale(0.015625)"/>
       <path id="DejaVuSans-64" d="M 2906 2969 
L 2906 4863 
L 3481 4863 
L 3481 0 
L 2906 0 
L 2906 525 
Q 2725 213 2448 61 
Q 2172 -91 1784 -91 
Q 1150 -91 751 415 
Q 353 922 353 1747 
Q 353 2572 751 3078 
Q 1150 3584 1784 3584 
Q 2172 3584 2448 3432 
Q 2725 3281 2906 2969 
z
M 947 1747 
Q 947 1113 1208 752 
Q 1469 391 1925 391 
Q 2381 391 2643 752 
Q 2906 1113 2906 1747 
Q 2906 2381 2643 2742 
Q 2381 3103 1925 3103 
Q 1469 3103 1208 2742 
Q 947 2381 947 1747 
z
" transform="scale(0.015625)"/>
      </defs>
      <use xlink:href="#DejaVuSans-50"/>
      <use xlink:href="#DejaVuSans-65" x="56.677734"/>
      <use xlink:href="#DejaVuSans-72" x="118.201172"/>
      <use xlink:href="#DejaVuSans-ed" x="159.314453"/>
      <use xlink:href="#DejaVuSans-6f" x="187.097656"/>
      <use xlink:href="#DejaVuSans-64" x="248.279297"/>
      <use xlink:href="#DejaVuSans-6f" x="311.755859"/>
      <use xlink:href="#DejaVuSans-73" x="372.9375"/>
     </g>
    </g>
    <g id="line2d_15">
     <path d="M 153 96.896563 
L 163 96.896563 
L 173 96.896563 
" style="fill: none; stroke: #8de5a1; stroke-opacity: 0.5; stroke-width: 5; stroke-linecap: square"/>
    </g>
    <g id="text_17">
     <!-- Normal -->
     <g transform="translate(181 100.396563) scale(0.1 -0.1)">
      <defs>
       <path id="DejaVuSans-4e" d="M 628 4666 
L 1478 4666 
L 3547 763 
L 3547 4666 
L 4159 4666 
L 4159 0 
L 3309 0 
L 1241 3903 
L 1241 0 
L 628 0 
L 628 4666 
z
" transform="scale(0.015625)"/>
       <path id="DejaVuSans-61" d="M 2194 1759 
Q 1497 1759 1228 1600 
Q 959 1441 959 1056 
Q 959 750 1161 570 
Q 1363 391 1709 391 
Q 2188 391 2477 730 
Q 2766 1069 2766 1631 
L 2766 1759 
L 2194 1759 
z
M 3341 1997 
L 3341 0 
L 2766 0 
L 2766 531 
Q 2569 213 2275 61 
Q 1981 -91 1556 -91 
Q 1019 -91 701 211 
Q 384 513 384 1019 
Q 384 1609 779 1909 
Q 1175 2209 1959 2209 
L 2766 2209 
L 2766 2266 
Q 2766 2663 2505 2880 
Q 2244 3097 1772 3097 
Q 1472 3097 1187 3025 
Q 903 2953 641 2809 
L 641 3341 
Q 956 3463 1253 3523 
Q 1550 3584 1831 3584 
Q 2591 3584 2966 3190 
Q 3341 2797 3341 1997 
z
" transform="scale(0.015625)"/>
       <path id="DejaVuSans-6c" d="M 603 4863 
L 1178 4863 
L 1178 0 
L 603 0 
L 603 4863 
z
" transform="scale(0.015625)"/>
      </defs>
      <use xlink:href="#DejaVuSans-4e"/>
      <use xlink:href="#DejaVuSans-6f" x="74.804688"/>
      <use xlink:href="#DejaVuSans-72" x="135.986328"/>
      <use xlink:href="#DejaVuSans-6d" x="175.349609"/>
      <use xlink:href="#DejaVuSans-61" x="272.761719"/>
      <use xlink:href="#DejaVuSans-6c" x="334.041016"/>
     </g>
    </g>
    <g id="line2d_16">
     <path d="M 153 111.574688 
L 163 111.574688 
L 173 111.574688 
" style="fill: none; stroke: #ffb482; stroke-opacity: 0.5; stroke-width: 5; stroke-linecap: square"/>
    </g>
    <g id="text_18">
     <!-- Transiente -->
     <g transform="translate(181 115.074688) scale(0.1 -0.1)">
      <defs>
       <path id="DejaVuSans-6e" d="M 3513 2113 
L 3513 0 
L 2938 0 
L 2938 2094 
Q 2938 2591 2744 2837 
Q 2550 3084 2163 3084 
Q 1697 3084 1428 2787 
Q 1159 2491 1159 1978 
L 1159 0 
L 581 0 
L 581 3500 
L 1159 3500 
L 1159 2956 
Q 1366 3272 1645 3428 
Q 1925 3584 2291 3584 
Q 2894 3584 3203 3211 
Q 3513 2838 3513 2113 
z
" transform="scale(0.015625)"/>
       <path id="DejaVuSans-69" d="M 603 3500 
L 1178 3500 
L 1178 0 
L 603 0 
L 603 3500 
z
M 603 4863 
L 1178 4863 
L 1178 4134 
L 603 4134 
L 603 4863 
z
" transform="scale(0.015625)"/>
       <path id="DejaVuSans-74" d="M 1172 4494 
L 1172 3500 
L 2356 3500 
L 2356 3053 
L 1172 3053 
L 1172 1153 
Q 1172 725 1289 603 
Q 1406 481 1766 481 
L 2356 481 
L 2356 0 
L 1766 0 
Q 1100 0 847 248 
Q 594 497 594 1153 
L 594 3053 
L 172 3053 
L 172 3500 
L 594 3500 
L 594 4494 
L 1172 4494 
z
" transform="scale(0.015625)"/>
      </defs>
      <use xlink:href="#DejaVuSans-54"/>
      <use xlink:href="#DejaVuSans-72" x="46.333984"/>
      <use xlink:href="#DejaVuSans-61" x="87.447266"/>
      <use xlink:href="#DejaVuSans-6e" x="148.726562"/>
      <use xlink:href="#DejaVuSans-73" x="212.105469"/>
      <use xlink:href="#DejaVuSans-69" x="264.205078"/>
      <use xlink:href="#DejaVuSans-65" x="291.988281"/>
      <use xlink:href="#DejaVuSans-6e" x="353.511719"/>
      <use xlink:href="#DejaVuSans-74" x="416.890625"/>
      <use xlink:href="#DejaVuSans-65" x="456.099609"/>
     </g>
    </g>
    <g id="line2d_17">
     <path d="M 153 126.252813 
L 163 126.252813 
L 173 126.252813 
" style="fill: none; stroke: #ff9f9b; stroke-opacity: 0.5; stroke-width: 5; stroke-linecap: square"/>
    </g>
    <g id="text_19">
     <!-- Falha -->
     <g transform="translate(181 129.752813) scale(0.1 -0.1)">
      <defs>
       <path id="DejaVuSans-46" d="M 628 4666 
L 3309 4666 
L 3309 4134 
L 1259 4134 
L 1259 2759 
L 3109 2759 
L 3109 2228 
L 1259 2228 
L 1259 0 
L 628 0 
L 628 4666 
z
" transform="scale(0.015625)"/>
       <path id="DejaVuSans-68" d="M 3513 2113 
L 3513 0 
L 2938 0 
L 2938 2094 
Q 2938 2591 2744 2837 
Q 2550 3084 2163 3084 
Q 1697 3084 1428 2787 
Q 1159 2491 1159 1978 
L 1159 0 
L 581 0 
L 581 4863 
L 1159 4863 
L 1159 2956 
Q 1366 3272 1645 3428 
Q 1925 3584 2291 3584 
Q 2894 3584 3203 3211 
Q 3513 2838 3513 2113 
z
" transform="scale(0.015625)"/>
      </defs>
      <use xlink:href="#DejaVuSans-46"/>
      <use xlink:href="#DejaVuSans-61" x="48.394531"/>
      <use xlink:href="#DejaVuSans-6c" x="109.673828"/>
      <use xlink:href="#DejaVuSans-68" x="137.457031"/>
      <use xlink:href="#DejaVuSans-61" x="200.835938"/>
     </g>
    </g>
   </g>
  </g>
 </g>
 <defs>
  <clipPath id="p70f0e3f2a3">
   <rect x="144" y="69.12" width="892.8" height="443.52"/>
  </clipPath>
 </defs>
</svg>
